<svg xmlns="http://www.w3.org/2000/svg" viewBox="0 0 200 190" width="200" height="190">
  <!-- trailing strand -->
  <path d="M150 95 C 175 120, 170 150, 140 165 C 120 175, 110 168, 118 158"
        fill="none" stroke="#d9782d" stroke-width="4" stroke-linecap="round"/>
  <circle cx="118" cy="158" r="6" fill="#d9782d"/>

  <!-- yarn ball -->
  <circle cx="95" cy="90" r="62" fill="#e88a3c"/>
  <g fill="none" stroke="#c76a24" stroke-width="4" stroke-linecap="round">
    <path d="M40 60 C 80 40, 130 45, 150 80"/>
    <path d="M35 95 C 80 110, 130 105, 155 75"/>
    <path d="M45 125 C 85 130, 130 120, 148 100"/>
    <path d="M60 45 C 70 80, 75 110, 60 140"/>
    <path d="M100 35 C 105 75, 105 115, 95 145"/>
    <path d="M135 55 C 120 85, 120 115, 130 135"/>
  </g>

  <!-- paw batting the yarn -->
  <g fill="#3a3a3a">
    <ellipse cx="168" cy="140" rx="16" ry="12" transform="rotate(-20 168 140)"/>
    <circle cx="152" cy="128" r="5"/>
    <circle cx="160" cy="120" r="5"/>
    <circle cx="170" cy="118" r="5"/>
  </g>
</svg>
